<svg width="20" height="20" viewBox="0 0 20 20" xmlns="http://www.w3.org/2000/svg">
<path d="M10 0.800003C4.92988 0.800003 0.799999 4.92988 0.799999 10C0.799999 15.0701 4.92988 19.2 10 19.2C15.0701 19.2 19.2 15.0701 19.2 10C19.2 4.92988 15.0701 0.800003 10 0.800003ZM10 2.64C14.0757 2.64 17.36 5.92429 17.36 10C17.36 13.6933 14.6601 16.728 11.1212 17.2666V12.194H13.2631L13.5991 10.018H11.1212V8.82844C11.1212 7.92408 11.4159 7.12141 12.2623 7.12141H13.6207V5.22211C13.3815 5.18991 12.8767 5.11969 11.9227 5.11969C9.92994 5.11969 8.76195 6.17217 8.76195 8.56969V10.018H6.71351V12.194H8.76195V17.2486C5.28067 16.6616 2.64 13.6526 2.64 10C2.64 5.92429 5.92429 2.64 10 2.64Z" fill="#FFFBFB"/>
</svg>
