<svg width="63" height="16" viewBox="0 0 63 16" fill="none" xmlns="http://www.w3.org/2000/svg">
<path d="M15.0195 7.94385C15.0195 8.60791 14.9316 9.24919 14.7559 9.86768C14.5866 10.4797 14.3457 11.0558 14.0332 11.5962C13.7207 12.13 13.3431 12.6183 12.9004 13.061C12.4577 13.5037 11.9694 13.8846 11.4355 14.2036C10.9017 14.5161 10.3255 14.757 9.70703 14.9263C9.08854 15.1021 8.44727 15.1899 7.7832 15.1899C7.11914 15.1899 6.47786 15.1021 5.85938 14.9263C5.2474 14.757 4.67122 14.5161 4.13086 14.2036C3.59701 13.8846 3.10872 13.5037 2.66602 13.061C2.22331 12.6183 1.84245 12.13 1.52344 11.5962C1.21094 11.0558 0.966797 10.4797 0.791016 9.86768C0.621745 9.24919 0.537109 8.60791 0.537109 7.94385C0.537109 7.27979 0.621745 6.63851 0.791016 6.02002C0.966797 5.40153 1.21094 4.82536 1.52344 4.2915C1.84245 3.75765 2.22331 3.26937 2.66602 2.82666C3.10872 2.38395 3.59701 2.00635 4.13086 1.69385C4.67122 1.38135 5.2474 1.14046 5.85938 0.971191C6.47786 0.79541 7.11914 0.70752 7.7832 0.70752C8.44727 0.70752 9.08854 0.79541 9.70703 0.971191C10.3255 1.14046 10.9017 1.38135 11.4355 1.69385C11.9694 2.00635 12.4577 2.38395 12.9004 2.82666C13.3431 3.26937 13.7207 3.75765 14.0332 4.2915C14.3457 4.82536 14.5866 5.40153 14.7559 6.02002C14.9316 6.63851 15.0195 7.27979 15.0195 7.94385ZM12.2363 7.94385C12.2363 7.33187 12.1191 6.7557 11.8848 6.21533C11.6504 5.66846 11.3314 5.19645 10.9277 4.79932C10.5306 4.39567 10.0586 4.07666 9.51172 3.84229C8.97135 3.60791 8.39518 3.49072 7.7832 3.49072C7.16471 3.49072 6.58529 3.60791 6.04492 3.84229C5.50456 4.07666 5.03255 4.39567 4.62891 4.79932C4.22526 5.19645 3.90625 5.66846 3.67188 6.21533C3.4375 6.7557 3.32031 7.33187 3.32031 7.94385C3.32031 8.55583 3.4375 9.132 3.67188 9.67236C3.90625 10.2062 4.22526 10.675 4.62891 11.0786C5.03255 11.4823 5.50456 11.8013 6.04492 12.0356C6.58529 12.27 7.16471 12.3872 7.7832 12.3872C8.39518 12.3872 8.97135 12.27 9.51172 12.0356C10.0586 11.8013 10.5306 11.4823 10.9277 11.0786C11.3314 10.675 11.6504 10.2062 11.8848 9.67236C12.1191 9.132 12.2363 8.55583 12.2363 7.94385ZM19.668 3.68604V9.2915H22.4707C22.8548 9.2915 23.2161 9.21989 23.5547 9.07666C23.8932 8.92692 24.1895 8.7251 24.4434 8.47119C24.6973 8.21729 24.8958 7.92106 25.0391 7.58252C25.1888 7.23747 25.2637 6.87288 25.2637 6.48877C25.2637 6.10465 25.1888 5.74333 25.0391 5.40479C24.8958 5.05973 24.6973 4.76025 24.4434 4.50635C24.1895 4.25244 23.8932 4.05387 23.5547 3.91064C23.2161 3.7609 22.8548 3.68604 22.4707 3.68604H19.668ZM19.668 14.8872H16.8652V0.883301H22.4707C22.985 0.883301 23.4798 0.95166 23.9551 1.08838C24.4303 1.21859 24.873 1.40739 25.2832 1.65479C25.6999 1.89567 26.0775 2.18864 26.416 2.53369C26.7611 2.87223 27.054 3.24984 27.2949 3.6665C27.5423 4.08317 27.7311 4.52913 27.8613 5.00439C27.998 5.47965 28.0664 5.97445 28.0664 6.48877C28.0664 6.97054 28.0046 7.43929 27.8809 7.89502C27.7637 8.35075 27.5911 8.78369 27.3633 9.19385C27.1419 9.604 26.8685 9.98161 26.543 10.3267C26.2174 10.6717 25.8529 10.9712 25.4492 11.2251L27.002 14.8872H24.0234L22.8027 12.0649L19.668 12.0845V14.8872ZM32.7148 14.8872H29.9121V0.883301H32.7148V14.8872ZM49.043 7.94385C49.043 8.60791 48.9551 9.24919 48.7793 9.86768C48.61 10.4797 48.3691 11.0558 48.0566 11.5962C47.7441 12.13 47.3665 12.6183 46.9238 13.061C46.4811 13.5037 45.9928 13.8846 45.459 14.2036C44.9251 14.5161 44.349 14.757 43.7305 14.9263C43.112 15.1021 42.4707 15.1899 41.8066 15.1899C41.1426 15.1899 40.5013 15.1021 39.8828 14.9263C39.2708 14.757 38.6947 14.5161 38.1543 14.2036C37.6204 13.8846 37.1322 13.5037 36.6895 13.061C36.2467 12.6183 35.8659 12.13 35.5469 11.5962C35.2344 11.0558 34.9902 10.4797 34.8145 9.86768C34.6452 9.24919 34.5605 8.60791 34.5605 7.94385C34.5605 7.27979 34.6452 6.63851 34.8145 6.02002C34.9902 5.40153 35.2344 4.82536 35.5469 4.2915C35.8659 3.75765 36.2467 3.26937 36.6895 2.82666C37.1322 2.38395 37.6204 2.00635 38.1543 1.69385C38.6947 1.38135 39.2708 1.14046 39.8828 0.971191C40.5013 0.79541 41.1426 0.70752 41.8066 0.70752C42.4707 0.70752 43.112 0.79541 43.7305 0.971191C44.349 1.14046 44.9251 1.38135 45.459 1.69385C45.9928 2.00635 46.4811 2.38395 46.9238 2.82666C47.3665 3.26937 47.7441 3.75765 48.0566 4.2915C48.3691 4.82536 48.61 5.40153 48.7793 6.02002C48.9551 6.63851 49.043 7.27979 49.043 7.94385ZM46.2598 7.94385C46.2598 7.33187 46.1426 6.7557 45.9082 6.21533C45.6738 5.66846 45.3548 5.19645 44.9512 4.79932C44.554 4.39567 44.082 4.07666 43.5352 3.84229C42.9948 3.60791 42.4186 3.49072 41.8066 3.49072C41.1882 3.49072 40.6087 3.60791 40.0684 3.84229C39.528 4.07666 39.056 4.39567 38.6523 4.79932C38.2487 5.19645 37.9297 5.66846 37.6953 6.21533C37.4609 6.7557 37.3438 7.33187 37.3438 7.94385C37.3438 8.55583 37.4609 9.132 37.6953 9.67236C37.9297 10.2062 38.2487 10.675 38.6523 11.0786C39.056 11.4823 39.528 11.8013 40.0684 12.0356C40.6087 12.27 41.1882 12.3872 41.8066 12.3872C42.4186 12.3872 42.9948 12.27 43.5352 12.0356C44.082 11.8013 44.554 11.4823 44.9512 11.0786C45.3548 10.675 45.6738 10.2062 45.9082 9.67236C46.1426 9.132 46.2598 8.55583 46.2598 7.94385ZM62.0898 14.8872H59.0918L53.6914 5.66846V14.8872H50.8887V0.883301H53.8867L59.2871 10.1118V0.883301H62.0898V14.8872Z" fill="#FFFDFD"/>
</svg>
