<svg fill="#000" width="94" height="23" viewBox="0 0 94 23" xmlns="http://www.w3.org/2000/svg">
<path d="M22.5293 11.4722C22.5293 12.4683 22.3975 13.4302 22.1338 14.3579C21.8799 15.2759 21.5186 16.1401 21.0498 16.9507C20.5811 17.7515 20.0146 18.4839 19.3506 19.1479C18.6865 19.812 17.9541 20.3833 17.1533 20.8618C16.3525 21.3306 15.4883 21.6919 14.5605 21.9458C13.6328 22.2095 12.6709 22.3413 11.6748 22.3413C10.6787 22.3413 9.7168 22.2095 8.78906 21.9458C7.87109 21.6919 7.00684 21.3306 6.19629 20.8618C5.39551 20.3833 4.66309 19.812 3.99902 19.1479C3.33496 18.4839 2.76367 17.7515 2.28516 16.9507C1.81641 16.1401 1.4502 15.2759 1.18652 14.3579C0.932617 13.4302 0.805664 12.4683 0.805664 11.4722C0.805664 10.4761 0.932617 9.51416 1.18652 8.58643C1.4502 7.65869 1.81641 6.79443 2.28516 5.99365C2.76367 5.19287 3.33496 4.46045 3.99902 3.79639C4.66309 3.13232 5.39551 2.56592 6.19629 2.09717C7.00684 1.62842 7.87109 1.26709 8.78906 1.01318C9.7168 0.749512 10.6787 0.617676 11.6748 0.617676C12.6709 0.617676 13.6328 0.749512 14.5605 1.01318C15.4883 1.26709 16.3525 1.62842 17.1533 2.09717C17.9541 2.56592 18.6865 3.13232 19.3506 3.79639C20.0146 4.46045 20.5811 5.19287 21.0498 5.99365C21.5186 6.79443 21.8799 7.65869 22.1338 8.58643C22.3975 9.51416 22.5293 10.4761 22.5293 11.4722ZM18.3545 11.4722C18.3545 10.5542 18.1787 9.68994 17.8271 8.87939C17.4756 8.05908 16.9971 7.35107 16.3916 6.75537C15.7959 6.1499 15.0879 5.67139 14.2676 5.31982C13.457 4.96826 12.5928 4.79248 11.6748 4.79248C10.7471 4.79248 9.87793 4.96826 9.06738 5.31982C8.25684 5.67139 7.54883 6.1499 6.94336 6.75537C6.33789 7.35107 5.85938 8.05908 5.50781 8.87939C5.15625 9.68994 4.98047 10.5542 4.98047 11.4722C4.98047 12.3901 5.15625 13.2544 5.50781 14.0649C5.85938 14.8657 6.33789 15.5688 6.94336 16.1743C7.54883 16.7798 8.25684 17.2583 9.06738 17.6099C9.87793 17.9614 10.7471 18.1372 11.6748 18.1372C12.5928 18.1372 13.457 17.9614 14.2676 17.6099C15.0879 17.2583 15.7959 16.7798 16.3916 16.1743C16.9971 15.5688 17.4756 14.8657 17.8271 14.0649C18.1787 13.2544 18.3545 12.3901 18.3545 11.4722ZM29.502 5.08545V13.4937H33.7061C34.2822 13.4937 34.8242 13.3862 35.332 13.1714C35.8398 12.9468 36.2842 12.644 36.665 12.2632C37.0459 11.8823 37.3438 11.438 37.5586 10.9302C37.7832 10.4126 37.8955 9.86572 37.8955 9.28955C37.8955 8.71338 37.7832 8.17139 37.5586 7.66357C37.3438 7.146 37.0459 6.69678 36.665 6.31592C36.2842 5.93506 35.8398 5.63721 35.332 5.42236C34.8242 5.19775 34.2822 5.08545 33.7061 5.08545H29.502ZM29.502 21.8872H25.2979V0.881348H33.7061C34.4775 0.881348 35.2197 0.983887 35.9326 1.18896C36.6455 1.38428 37.3096 1.66748 37.9248 2.03857C38.5498 2.3999 39.1162 2.83936 39.624 3.35693C40.1416 3.86475 40.5811 4.43115 40.9424 5.05615C41.3135 5.68115 41.5967 6.3501 41.792 7.06299C41.9971 7.77588 42.0996 8.51807 42.0996 9.28955C42.0996 10.0122 42.0068 10.7153 41.8213 11.3989C41.6455 12.0825 41.3867 12.7319 41.0449 13.3472C40.7129 13.9624 40.3027 14.5288 39.8145 15.0464C39.3262 15.564 38.7793 16.0132 38.1738 16.394L40.5029 21.8872H36.0352L34.2041 17.6538L29.502 17.6831V21.8872ZM49.0723 21.8872H44.8682V0.881348H49.0723V21.8872ZM73.5645 11.4722C73.5645 12.4683 73.4326 13.4302 73.1689 14.3579C72.915 15.2759 72.5537 16.1401 72.085 16.9507C71.6162 17.7515 71.0498 18.4839 70.3857 19.1479C69.7217 19.812 68.9893 20.3833 68.1885 20.8618C67.3877 21.3306 66.5234 21.6919 65.5957 21.9458C64.668 22.2095 63.7061 22.3413 62.71 22.3413C61.7139 22.3413 60.752 22.2095 59.8242 21.9458C58.9062 21.6919 58.042 21.3306 57.2314 20.8618C56.4307 20.3833 55.6982 19.812 55.0342 19.1479C54.3701 18.4839 53.7988 17.7515 53.3203 16.9507C52.8516 16.1401 52.4854 15.2759 52.2217 14.3579C51.9678 13.4302 51.8408 12.4683 51.8408 11.4722C51.8408 10.4761 51.9678 9.51416 52.2217 8.58643C52.4854 7.65869 52.8516 6.79443 53.3203 5.99365C53.7988 5.19287 54.3701 4.46045 55.0342 3.79639C55.6982 3.13232 56.4307 2.56592 57.2314 2.09717C58.042 1.62842 58.9062 1.26709 59.8242 1.01318C60.752 0.749512 61.7139 0.617676 62.71 0.617676C63.7061 0.617676 64.668 0.749512 65.5957 1.01318C66.5234 1.26709 67.3877 1.62842 68.1885 2.09717C68.9893 2.56592 69.7217 3.13232 70.3857 3.79639C71.0498 4.46045 71.6162 5.19287 72.085 5.99365C72.5537 6.79443 72.915 7.65869 73.1689 8.58643C73.4326 9.51416 73.5645 10.4761 73.5645 11.4722ZM69.3896 11.4722C69.3896 10.5542 69.2139 9.68994 68.8623 8.87939C68.5107 8.05908 68.0322 7.35107 67.4268 6.75537C66.8311 6.1499 66.123 5.67139 65.3027 5.31982C64.4922 4.96826 63.6279 4.79248 62.71 4.79248C61.7822 4.79248 60.9131 4.96826 60.1025 5.31982C59.292 5.67139 58.584 6.1499 57.9785 6.75537C57.373 7.35107 56.8945 8.05908 56.543 8.87939C56.1914 9.68994 56.0156 10.5542 56.0156 11.4722C56.0156 12.3901 56.1914 13.2544 56.543 14.0649C56.8945 14.8657 57.373 15.5688 57.9785 16.1743C58.584 16.7798 59.292 17.2583 60.1025 17.6099C60.9131 17.9614 61.7822 18.1372 62.71 18.1372C63.6279 18.1372 64.4922 17.9614 65.3027 17.6099C66.123 17.2583 66.8311 16.7798 67.4268 16.1743C68.0322 15.5688 68.5107 14.8657 68.8623 14.0649C69.2139 13.2544 69.3896 12.3901 69.3896 11.4722ZM93.1348 21.8872H88.6377L80.5371 8.05908V21.8872H76.333V0.881348H80.8301L88.9307 14.7241V0.881348H93.1348V21.8872Z" fill="#FFFDFD"/>
</svg>
