<svg width="22" height="21" viewBox="0 0 22 21" fill="none" xmlns="http://www.w3.org/2000/svg">
<path d="M20.2749 0.963938C19.9796 0.976965 19.7045 1.06297 19.4623 1.16087C19.2355 1.25213 18.3686 1.6239 17.0033 2.20939C15.6368 2.7954 13.8275 3.57223 11.8973 4.40225C8.03705 6.0623 3.69709 7.93093 1.47415 8.88732C1.39057 8.92327 1.0989 9.01644 0.789331 9.25812C0.479763 9.49979 0.150635 10.0006 0.150635 10.5586C0.150635 11.0085 0.365071 11.4555 0.634979 11.7224C0.904887 11.9893 1.19049 12.1211 1.43512 12.221C2.32275 12.5831 5.07567 13.7097 5.59552 13.9224C5.77847 14.4828 6.7749 17.5309 7.00597 18.2779C7.1583 18.7709 7.3033 19.0796 7.49209 19.3247C7.58649 19.4472 7.69621 19.5546 7.82918 19.6387C7.88233 19.6723 7.9406 19.6982 7.9995 19.7221L8.00305 19.7239C8.01662 19.7293 8.02832 19.7386 8.04208 19.7434C8.06804 19.7525 8.08541 19.7535 8.12014 19.7611C8.25851 19.8058 8.3982 19.8339 8.52287 19.8339C9.05442 19.8339 9.37979 19.5411 9.37979 19.5411L9.39931 19.5269L12.1333 17.162L15.4492 20.2987C15.4959 20.3647 15.9313 20.9622 16.8916 20.9622C17.4617 20.9622 17.9141 20.6761 18.2044 20.3714C18.4948 20.0667 18.6757 19.7466 18.7527 19.3442V19.3424C18.8246 18.9621 21.8805 3.27389 21.8805 3.27389L21.8752 3.29518C21.9646 2.88685 21.9881 2.50659 21.8894 2.13133C21.7907 1.75608 21.5306 1.39679 21.2081 1.20345C20.8856 1.01015 20.5702 0.950911 20.2749 0.963938ZM20.1046 2.86228C20.1002 2.88879 20.1078 2.87546 20.101 2.90664L20.0992 2.91728L20.0975 2.92793C20.0975 2.92793 17.0794 18.4155 16.9679 19.0053C16.976 18.9608 16.9387 19.0493 16.9004 19.1029C16.8463 19.0656 16.7354 19.0177 16.7354 19.0177L16.7177 18.9982L12.1883 14.7136L8.98593 17.4813L9.93865 13.6669C9.93865 13.6669 15.8941 7.50213 16.2529 7.14332C16.5417 6.85628 16.6024 6.75621 16.6024 6.6572C16.6024 6.52458 16.5333 6.42834 16.3788 6.42834C16.2399 6.42834 16.053 6.56346 15.953 6.62704C14.6513 7.45688 8.93621 10.7877 6.37437 12.2777C5.96726 12.1111 3.13886 10.9533 2.18027 10.5621C2.18753 10.5589 2.18514 10.5601 2.19269 10.5568C4.41621 9.60016 8.75436 7.73154 12.6141 6.07173C14.5439 5.24183 16.3547 4.46441 17.7201 3.87888C19.0645 3.30236 19.9986 2.90559 20.1046 2.86228Z" fill="#FFFBFB"/>
</svg>
