<svg width="26" height="21" viewBox="0 0 26 21" fill="none" xmlns="http://www.w3.org/2000/svg">
<path d="M13.4727 0.824219C13.4727 0.824219 5.65459 0.82418 3.70459 1.34668C2.62834 1.63418 1.78262 2.48115 1.49512 3.55615C0.972617 5.50615 0.972656 10.8242 0.972656 10.8242C0.972656 10.8242 0.972617 16.1423 1.49512 18.0923C1.78262 19.1685 2.62959 20.0143 3.70459 20.3018C5.65459 20.8243 13.4727 20.8242 13.4727 20.8242C13.4727 20.8242 21.2907 20.8243 23.2407 20.3018C24.3157 20.0143 25.1627 19.1673 25.4502 18.0923C25.9727 16.1423 25.9727 10.8242 25.9727 10.8242C25.9727 10.8242 25.9727 5.50615 25.4502 3.55615C25.1627 2.48115 24.3157 1.63418 23.2407 1.34668C21.2907 0.82418 13.4727 0.824219 13.4727 0.824219ZM13.4727 3.32422C17.0752 3.32422 21.5863 3.49123 22.5938 3.76123C22.805 3.81748 22.9781 3.99062 23.0356 4.20312C23.3369 5.32563 23.4727 8.75172 23.4727 10.8242C23.4727 12.8967 23.3369 16.3216 23.0356 17.4453C22.9794 17.6566 22.8063 17.8297 22.5938 17.8872C21.5875 18.1572 17.0752 18.3242 13.4727 18.3242C9.87141 18.3242 5.36031 18.1572 4.35156 17.8872C4.14031 17.831 3.96717 17.6578 3.90967 17.4453C3.60842 16.3228 3.47266 12.8967 3.47266 10.8242C3.47266 8.75172 3.60842 5.32568 3.90967 4.20068C3.96592 3.99068 4.13906 3.81748 4.35156 3.76123C5.35781 3.49123 9.87016 3.32422 13.4727 3.32422ZM10.9727 6.49316V15.1553L18.4727 10.8242L10.9727 6.49316Z" fill="#FFFCFC"/>
</svg>
